<?xml version="1.0" encoding="UTF-8" standalone="no"?>
<!DOCTYPE svg PUBLIC "-//W3C//DTD SVG 1.1//EN" "http://www.w3.org/Graphics/SVG/1.1/DTD/svg11.dtd">
<svg xmlns="http://www.w3.org/2000/svg" version="1.1" viewBox="0.00 0.00 820.00 860.00">
<path fill="#fecc00" d="
  M 40.20 285.69
  C 50.38 261.66 62.76 237.37 77.75 215.97
  C 83.84 207.27 89.89 198.41 96.60 190.20
  Q 116.43 165.97 139.29 144.59
  C 145.21 139.04 152.24 133.49 158.77 127.97
  C 163.31 124.13 168.37 120.62 173.18 116.89
  Q 177.62 113.45 182.66 110.10
  C 187.00 107.22 191.23 104.00 195.58 101.43
  C 207.12 94.62 219.09 87.23 230.53 81.59
  C 243.93 74.99 258.07 68.49 272.32 63.93
  Q 276.35 62.63 280.34 61.18
  Q 302.03 53.25 316.75 50.23
  C 329.01 47.72 340.71 45.20 353.53 43.67
  C 361.85 42.68 370.47 41.29 378.53 40.85
  Q 411.31 39.05 444.09 41.03
  C 450.07 41.39 456.41 42.54 462.64 43.25
  Q 468.39 43.90 473.82 44.83
  C 478.78 45.68 484.02 46.34 488.68 47.29
  C 511.00 51.81 530.55 57.90 551.01 64.92
  C 559.11 67.70 566.69 71.55 574.53 74.93
  C 590.40 81.77 605.67 90.40 620.52 99.21
  C 627.87 103.57 634.88 108.74 642.78 114.22
  C 686.03 144.21 723.21 185.36 751.06 229.74
  C 757.58 240.13 763.71 251.98 769.67 263.31
  Q 774.34 272.20 783.96 296.66
  C 786.04 301.95 788.26 308.35 790.19 314.15
  Q 799.04 340.69 803.25 364.26
  Q 805.93 379.24 808.31 400.31
  Q 809.42 410.12 809.73 420.25
  Q 810.59 448.02 809.74 464.00
  Q 808.83 481.27 804.67 506.64
  C 799.36 539.03 789.67 570.77 776.57 600.84
  C 773.09 608.84 768.77 617.13 764.65 625.20
  Q 754.82 644.47 743.62 660.88
  C 726.32 686.27 706.80 710.56 684.32 731.32
  C 664.97 749.20 644.34 765.84 619.58 781.15
  C 606.65 789.15 591.38 796.92 578.51 803.05
  Q 558.91 812.37 550.77 814.84
  Q 544.04 816.87 537.51 819.45
  Q 531.63 821.76 512.45 826.79
  C 487.42 833.35 462.13 837.24 437.92 839.26
  C 422.58 840.55 408.89 840.18 392.50 839.97
  C 387.88 839.91 382.90 838.97 379.49 838.72
  C 354.82 836.91 330.66 832.19 306.78 826.63
  Q 301.31 825.35 291.57 821.88
  C 289.45 821.13 286.27 820.66 283.69 819.68
  C 275.77 816.65 267.33 814.12 259.91 810.99
  Q 239.27 802.28 232.51 798.76
  Q 213.11 788.65 196.26 778.42
  Q 192.59 776.20 187.50 772.49
  C 173.33 762.18 157.58 751.47 145.32 739.93
  Q 137.96 733.00 135.03 730.21
  Q 119.55 715.42 105.48 699.28
  Q 95.11 687.39 86.06 674.48
  C 81.24 667.60 75.75 660.65 71.54 653.99
  Q 60.91 637.19 51.92 619.45
  C 49.27 614.22 46.20 607.08 43.08 600.99
  Q 40.93 596.80 35.89 583.56
  C 28.48 564.12 22.66 544.75 18.18 525.02
  C 15.13 511.55 13.46 497.78 11.75 483.99
  C 9.56 466.37 9.72 450.86 9.81 431.00
  C 9.91 409.66 12.25 389.61 15.57 369.11
  Q 17.16 359.24 19.50 349.50
  C 24.90 326.94 31.24 306.84 40.20 285.69
  Z
  M 325.03 403.91
  C 321.64 396.36 317.64 386.95 323.57 381.07
  Q 333.61 371.10 343.60 361.10
  Q 349.35 355.34 351.53 347.51
  C 353.66 339.82 352.22 334.53 348.31 327.12
  Q 324.69 282.42 300.82 237.84
  C 294.41 225.87 280.00 222.02 269.64 231.64
  Q 264.39 236.52 259.35 241.60
  Q 234.39 266.77 209.31 291.82
  C 197.65 303.47 195.02 316.46 196.06 332.75
  C 197.53 355.65 204.84 379.58 213.61 400.89
  Q 225.62 430.06 246.96 461.72
  C 272.93 500.25 305.34 533.98 339.81 565.07
  C 366.61 589.25 396.57 609.76 428.66 626.34
  Q 448.33 636.50 469.25 643.63
  C 485.87 649.30 502.86 652.44 520.25 653.56
  C 530.59 654.22 540.43 653.10 549.24 647.72
  Q 553.45 645.16 562.64 636.03
  Q 589.90 608.97 617.16 581.91
  C 627.46 571.68 625.64 556.43 613.18 549.05
  Q 570.38 523.72 527.64 498.28
  C 519.27 493.30 508.05 492.79 499.46 497.13
  Q 495.38 499.19 488.07 506.60
  Q 478.57 516.26 469.03 525.88
  C 466.06 528.88 463.83 530.33 459.76 529.66
  C 450.14 528.06 440.75 523.32 432.48 518.31
  Q 408.98 504.10 389.18 485.08
  C 364.29 461.16 339.39 435.92 325.03 403.91
  Z"
/>
<path fill="#000000" d="
  M 325.03 403.91
  C 339.39 435.92 364.29 461.16 389.18 485.08
  Q 408.98 504.10 432.48 518.31
  C 440.75 523.32 450.14 528.06 459.76 529.66
  C 463.83 530.33 466.06 528.88 469.03 525.88
  Q 478.57 516.26 488.07 506.60
  Q 495.38 499.19 499.46 497.13
  C 508.05 492.79 519.27 493.30 527.64 498.28
  Q 570.38 523.72 613.18 549.05
  C 625.64 556.43 627.46 571.68 617.16 581.91
  Q 589.90 608.97 562.64 636.03
  Q 553.45 645.16 549.24 647.72
  C 540.43 653.10 530.59 654.22 520.25 653.56
  C 502.86 652.44 485.87 649.30 469.25 643.63
  Q 448.33 636.50 428.66 626.34
  C 396.57 609.76 366.61 589.25 339.81 565.07
  C 305.34 533.98 272.93 500.25 246.96 461.72
  Q 225.62 430.06 213.61 400.89
  C 204.84 379.58 197.53 355.65 196.06 332.75
  C 195.02 316.46 197.65 303.47 209.31 291.82
  Q 234.39 266.77 259.35 241.60
  Q 264.39 236.52 269.64 231.64
  C 280.00 222.02 294.41 225.87 300.82 237.84
  Q 324.69 282.42 348.31 327.12
  C 352.22 334.53 353.66 339.82 351.53 347.51
  Q 349.35 355.34 343.60 361.10
  Q 333.61 371.10 323.57 381.07
  C 317.64 386.95 321.64 396.36 325.03 403.91
  Z"
/>
</svg>
