<?xml version="1.0" encoding="UTF-8" standalone="no"?>
<!DOCTYPE svg PUBLIC "-//W3C//DTD SVG 1.1//EN" "http://www.w3.org/Graphics/SVG/1.1/DTD/svg11.dtd">
<svg xmlns="http://www.w3.org/2000/svg" version="1.1" viewBox="0.00 0.00 472.00 472.00">
<path fill="#4caf50" d="
  M 462.97 237.99
  A 224.97 224.97 0.0 0 1 238.00 462.96
  A 224.97 224.97 0.0 0 1 13.03 237.99
  A 224.97 224.97 0.0 0 1 238.00 13.02
  A 224.97 224.97 0.0 0 1 462.97 237.99
  Z
  M 137.08 312.28
  L 123.32 353.04
  A 0.34 0.34 0.0 0 0 123.76 353.46
  L 162.52 338.20
  A 1.06 1.05 -37.4 0 1 163.54 338.33
  C 187.81 356.18 216.73 364.64 246.74 362.56
  C 313.28 357.95 364.65 301.06 362.82 234.48
  C 361.50 186.27 332.23 142.83 288.24 123.52
  C 244.64 104.38 193.68 111.84 157.35 142.60
  C 107.72 184.62 98.13 257.83 136.94 311.41
  A 0.98 0.98 0.0 0 1 137.08 312.28
  Z"
/>
<path fill="#ffffff" d="
  M 136.94 311.41
  C 98.13 257.83 107.72 184.62 157.35 142.60
  C 193.68 111.84 244.64 104.38 288.24 123.52
  C 332.23 142.83 361.50 186.27 362.82 234.48
  C 364.65 301.06 313.28 357.95 246.74 362.56
  C 216.73 364.64 187.81 356.18 163.54 338.33
  A 1.06 1.05 -37.4 0 0 162.52 338.20
  L 123.76 353.46
  A 0.34 0.34 0.0 0 1 123.32 353.04
  L 137.08 312.28
  A 0.98 0.98 0.0 0 0 136.94 311.41
  Z
  M 264.46 304.85
  C 289.60 313.40 307.42 302.24 311.57 276.28
  A 1.86 1.82 -63.7 0 0 311.04 274.67
  C 303.16 267.03 290.09 262.15 279.46 260.26
  Q 274.91 259.46 272.48 263.24
  C 268.04 270.14 263.48 278.91 253.80 277.62
  C 249.86 277.10 243.88 274.08 240.51 271.74
  Q 218.37 256.38 200.95 235.79
  Q 197.10 231.24 196.28 229.01
  C 191.97 217.23 211.73 209.92 209.59 202.29
  Q 208.31 197.71 205.81 192.43
  C 203.72 188.02 193.43 168.87 188.74 169.24
  C 173.76 170.43 163.78 184.48 163.62 198.77
  Q 163.54 206.19 164.76 211.03
  C 177.07 259.52 219.49 289.54 264.46 304.85
  Z"
/>
<path fill="#4caf50" d="
  M 311.57 276.28
  C 307.42 302.24 289.60 313.40 264.46 304.85
  C 219.49 289.54 177.07 259.52 164.76 211.03
  Q 163.54 206.19 163.62 198.77
  C 163.78 184.48 173.76 170.43 188.74 169.24
  C 193.43 168.87 203.72 188.02 205.81 192.43
  Q 208.31 197.71 209.59 202.29
  C 211.73 209.92 191.97 217.23 196.28 229.01
  Q 197.10 231.24 200.95 235.79
  Q 218.37 256.38 240.51 271.74
  C 243.88 274.08 249.86 277.10 253.80 277.62
  C 263.48 278.91 268.04 270.14 272.48 263.24
  Q 274.91 259.46 279.46 260.26
  C 290.09 262.15 303.16 267.03 311.04 274.67
  A 1.86 1.82 -63.7 0 1 311.57 276.28
  Z"
/>
</svg>
